<svg fill="none" xmlns="http://www.w3.org/2000/svg" viewBox="18.5 10.27 43 58.97">
    <path d="M40 11.7676C51.0457 11.7676 60 20.7219 60 31.7676V32.9722C60 37.3918 58.6191 41.7009 56.0503 45.2972L40.0395 67.7123C40.0201 67.7394 39.9799 67.7394 39.9605 67.7123L23.9497 45.2972C21.3809 41.7009 20 37.3918 20 32.9722V31.7676C20 20.7219 28.9543 11.7676 40 11.7676Z"
          fill="#BF0077"/>
    <path d="M48.7838 29.882C48.1737 27.2088 46.3795 24.959 43.9092 23.7694C41.4388 22.5797 38.5612 22.5797 36.0908 23.7694C33.6205 24.959 31.8263 27.2088 31.2162 29.882C30.6061 32.5551 31.2464 35.3606 32.9559 37.5043C34.6655 39.6479 37.2581 40.8965 40 40.8965C42.7419 40.8965 45.3345 39.6479 47.0441 37.5043C48.7536 35.3606 49.3939 32.5551 48.7838 29.882Z"
          fill="#FFFFFF"/>
    <path d="M61.5 31.7676C61.5 19.8935 51.8741 10.2676 40 10.2676V13.2676C50.2173 13.2676 58.5 21.5503 58.5 31.7676H61.5ZM61.5 32.9722V31.7676H58.5V32.9722H61.5ZM57.2709 46.169C60.0214 42.3183 61.5 37.7044 61.5 32.9722H58.5C58.5 37.0791 57.2168 41.0834 54.8297 44.4253L57.2709 46.169ZM41.2601 68.5841L57.2709 46.169L54.8297 44.4253L38.8189 66.8404L41.2601 68.5841ZM38.7399 68.5841C39.3574 69.4488 40.6426 69.4488 41.2601 68.5841L38.8189 66.8405C39.3977 66.03 40.6023 66.03 41.1811 66.8405L38.7399 68.5841ZM22.7291 46.169L38.7399 68.5841L41.1811 66.8404L25.1703 44.4253L22.7291 46.169ZM18.5 32.9722C18.5 37.7044 19.9786 42.3183 22.7291 46.169L25.1703 44.4253C22.7832 41.0834 21.5 37.0791 21.5 32.9722H18.5ZM18.5 31.7676V32.9722H21.5V31.7676H18.5ZM40 10.2676C28.1259 10.2676 18.5 19.8935 18.5 31.7676H21.5C21.5 21.5503 29.7827 13.2676 40 13.2676V10.2676Z"
          fill="#7F0057"/>
</svg>
